#!OML:ASF F:\VICON\USERDATA\INSTALL\rory3\rory3.ASF
:FULLY-SPECIFIED
:DEGREES
128
root 0.153306 13.3102 -2.39537 1.47274 -0.985732 4.89011
lowerback 32.4461 0.248844 -3.77458
upperback 6.26631 -1.0911 -1.28223
thorax -9.72651 -0.420779 1.06485
lowerneck -14.9134 -1.48114 -7.16384
upperneck -15.0385 -0.483566 7.00706
head -2.35483 0.0447177 3.61375
rclavicle -7.48549e-015 8.33343e-015
rhumerus -14.5042 1.32749 -82.0882
rradius 49.7991
rwrist -1.08854
rhand -36.0863 -1.06648
rfingers 7.12502
rthumb -9.19309 -30.8461
lclavicle -7.48549e-015 8.33343e-015
lhumerus -14.4238 -0.188239 80.6213
lradius 51.2164
lwrist 11.877
lhand -35.6493 25.7331
lfingers 7.12502
lthumb -8.77138 55.5309
rfemur -58.5678 -9.96681 13.9329
rtibia 110.826
rfoot -36.355 -5.70143
rtoes -21.673
lfemur -55.1106 11.1361 -24.6927
ltibia 105.303
lfoot -34.6093 -6.49444
ltoes -4.84472
129
root 0.145273 13.3386 -2.39804 1.26369 -0.806782 4.70878
lowerback 32.4805 0.155123 -3.5947
upperback 6.2851 -1.14246 -1.21841
thorax -9.72126 -0.448585 1.05537
lowerneck -14.9686 -1.43507 -7.08995
upperneck -15.2362 -0.421299 6.99267
head -2.42027 0.0738764 3.59957
rclavicle -1.25755e-014 1.81702e-015
rhumerus -13.359 1.55413 -82.0323
rradius 50.1644
rwrist -1.33659
rhand -36.893 -2.07481
rfingers 7.12502
rthumb -9.97146 -31.8186
lclavicle -1.25755e-014 1.81702e-015
lhumerus -13.6118 -0.186067 80.4196
lradius 52.354
lwrist 12.7504
lhand -36.3025 26.0374
lfingers 7.12502
lthumb -9.40166 55.8077
rfemur -58.1475 -10.0124 14.2846
rtibia 110.612
rfoot -36.2792 -5.95941
rtoes -21.2103
lfemur -54.8104 11.1048 -24.4827
ltibia 105.117
lfoot -34.5004 -6.34436
ltoes -4.98425
130
root 0.136169 13.3769 -2.40204 1.04428 -0.645282 4.69104
lowerback 32.5555 0.0877914 -3.53085
upperback 6.33367 -1.20823 -1.22749
thorax -9.69687 -0.480922 1.03573
lowerneck -15.3376 -1.44918 -7.00004
upperneck -15.2635 -0.426982 7.00068
head -2.36891 0.0724449 3.58398
rclavicle -1.82944e-015 -7.95139e-015
rhumerus -12.1843 1.43272 -81.9542
rradius 50.5011
rwrist -1.1546
rhand -37.0505 -0.63694
rfingers 7.12502
rthumb -10.1233 -30.3734
lclavicle -1.82944e-015 -7.95139e-015
lhumerus -12.5282 -0.269169 80.156
lradius 53.4683
lwrist 13.7601
lhand -36.3917 25.3611
lfingers 7.12502
lthumb -9.48778 55.1275
rfemur -57.7193 -10.0118 14.4191
rtibia 110.342
rfoot -36.0837 -6.31261
rtoes -21.058
lfemur -54.3874 11.009 -24.4364
ltibia 104.803
lfoot -34.4418 -6.0368
ltoes -5.7674
131
root 0.124751 13.4273 -2.40975 0.865954 -0.496469 4.74124
lowerback 32.6247 0.0435194 -3.58046
upperback 6.35396 -1.2826 -1.2307
thorax -9.69773 -0.514026 1.08624
lowerneck -15.6085 -1.48493 -6.9488
upperneck -15.3789 -0.460317 7.01345
head -2.36284 0.0575225 3.57855
rclavicle -9.57894e-015 -8.44835e-016
rhumerus -11.0382 1.47469 -81.8461
rradius 51.1497
rwrist -0.97566
rhand -36.8036 -0.0939308
rfingers 7.12502
rthumb -9.88518 -29.8419
lclavicle -9.57894e-015 -8.44835e-016
lhumerus -11.3188 -0.32438 79.8362
lradius 54.5842
lwrist 14.4785
lhand -36.3332 24.8561
lfingers 7.12502
lthumb -9.43127 54.6251
rfemur -57.3567 -9.84253 14.4746
rtibia 109.987
rfoot -35.746 -6.76509
rtoes -20.7773
lfemur -53.9893 10.8359 -24.4166
ltibia 104.355
lfoot -34.3164 -5.61768
ltoes -6.86397
132
root 0.1139 13.482 -2.41907 0.754835 -0.349417 4.67136
lowerback 32.6556 -0.0134107 -3.56512
upperback 6.31718 -1.34512 -1.17789
thorax -9.74764 -0.541755 1.15762
lowerneck -15.753 -1.46709 -6.90279
upperneck -15.5494 -0.429289 6.99503
head -2.40217 0.0735535 3.56661
rclavicle -6.1499e-015 -1.87852e-014
rhumerus -9.84953 1.64049 -81.6568
rradius 51.7959
rwrist -0.911687
rhand -36.5203 0.305854
rfingers 7.12502
rthumb -9.61183 -29.4549
lclavicle -6.1499e-015 -1.87852e-014
lhumerus -10.0705 -0.377 79.4527
lradius 55.774
lwrist 14.8264
lhand -35.6002 24.9636
lfingers 7.12502
lthumb -8.724 54.7633
rfemur -57.0815 -9.57236 14.6504
rtibia 109.56
rfoot -35.2558 -7.2266
rtoes -20.6738
lfemur -53.748 10.5596 -24.1805
ltibia 103.865
lfoot -34.0231 -5.72817
ltoes -6.58855
133
root 0.106366 13.5444 -2.42545 0.631869 -0.118944 4.70673
lowerback 32.7115 -0.111857 -3.56519
upperback 6.23728 -1.47134 -1.16022
thorax -9.85323 -0.596689 1.22429
lowerneck -15.8519 -1.4495 -6.83818
upperneck -15.7022 -0.408339 6.93777
head -2.4418 0.0829246 3.53656
rclavicle 4.69008e-015 3.8266e-015
rhumerus -8.70289 1.90296 -81.4165
rradius 52.6111
rwrist -0.876502
rhand -36.6399 0.0856575
rfingers 7.12502
rthumb -9.72727 -29.6697
lclavicle 4.69008e-015 3.8266e-015
lhumerus -8.84914 -0.394926 79.0101
lradius 57.1416
lwrist 14.8962
lhand -37.149 25.0085
lfingers 7.12502
lthumb -10.2184 54.7403
rfemur -56.6946 -9.48225 14.6158
rtibia 109.076
rfoot -34.823 -7.35462
rtoes -20.3994
lfemur -53.4021 10.1004 -24.0679
ltibia 103.265
lfoot -33.5856 -6.14272
ltoes -5.46647
